<?xml version="1.0" standalone="no"?>
<svg xmlns:xlink="http://www.w3.org/1999/xlink" id="wave" style="transform:rotate(180deg); transition: 0.3s" viewBox="0 0 1440 100" version="1.1" xmlns="http://www.w3.org/2000/svg"><defs><linearGradient id="sw-gradient-0" x1="0" x2="0" y1="1" y2="0"><stop stop-color="rgba(255, 249, 234, 1)" offset="0%"/><stop stop-color="rgba(255, 249, 234, 1)" offset="100%"/></linearGradient></defs><path style="transform:translate(0, 0px); opacity:1" fill="url(#sw-gradient-0)" d="M0,40L48,41.7C96,43,192,47,288,53.3C384,60,480,70,576,73.3C672,77,768,73,864,60C960,47,1056,23,1152,26.7C1248,30,1344,60,1440,70C1536,80,1632,70,1728,68.3C1824,67,1920,73,2016,66.7C2112,60,2208,40,2304,28.3C2400,17,2496,13,2592,15C2688,17,2784,23,2880,31.7C2976,40,3072,50,3168,58.3C3264,67,3360,73,3456,70C3552,67,3648,53,3744,43.3C3840,33,3936,27,4032,28.3C4128,30,4224,40,4320,36.7C4416,33,4512,17,4608,21.7C4704,27,4800,53,4896,60C4992,67,5088,53,5184,51.7C5280,50,5376,60,5472,68.3C5568,77,5664,83,5760,80C5856,77,5952,63,6048,58.3C6144,53,6240,57,6336,50C6432,43,6528,27,6624,21.7C6720,17,6816,23,6864,26.7L6912,30L6912,100L6864,100C6816,100,6720,100,6624,100C6528,100,6432,100,6336,100C6240,100,6144,100,6048,100C5952,100,5856,100,5760,100C5664,100,5568,100,5472,100C5376,100,5280,100,5184,100C5088,100,4992,100,4896,100C4800,100,4704,100,4608,100C4512,100,4416,100,4320,100C4224,100,4128,100,4032,100C3936,100,3840,100,3744,100C3648,100,3552,100,3456,100C3360,100,3264,100,3168,100C3072,100,2976,100,2880,100C2784,100,2688,100,2592,100C2496,100,2400,100,2304,100C2208,100,2112,100,2016,100C1920,100,1824,100,1728,100C1632,100,1536,100,1440,100C1344,100,1248,100,1152,100C1056,100,960,100,864,100C768,100,672,100,576,100C480,100,384,100,288,100C192,100,96,100,48,100L0,100Z"/></svg>